<?xml version="1.0" encoding="UTF-8"?>
<svg width="194px" height="16px" viewBox="0 0 194 16" version="1.1" xmlns="http://www.w3.org/2000/svg" xmlns:xlink="http://www.w3.org/1999/xlink">
    <!-- Generator: Sketch 45.2 (43514) - http://www.bohemiancoding.com/sketch -->
    <title>Group</title>
    <desc>Created with Sketch.</desc>
    <defs></defs>
    <g id="Symbols" stroke="none" stroke-width="1" fill="none" fill-rule="evenodd">
        <g id="Header" transform="translate(-127.000000, -24.000000)" fill="#000000">
            <g id="Group">
                <g transform="translate(127.000000, 24.000000)">
                    <path d="M19.9591076,3.01379366 L20.4652331,0.0507066233 L6.63113416,0.0507066233 C4.55039569,0.0507066233 2.63836575,1.7279257 2.24471253,3.7405886 L0.107737887,15.9283806 L3.08825515,15.9283806 L5.11275744,4.52329083 C5.28146596,3.7405886 6.01253624,3.06970096 6.79984268,3.06970096 L19.9591076,3.06970096 L19.9591076,3.01379366 Z" id="Shape"></path>
                    <polygon id="Shape" points="7.36220443 8.99587504 18.8906203 8.99587504 19.452982 5.9768807 7.86833 5.9768807"></polygon>
                    <polygon id="Shape" points="22.4334993 5.9768807 20.6901778 15.9283806 23.6706951 15.9283806 25.4140165 5.9768807"></polygon>
                    <polygon id="Shape" points="23.5019866 0.0507066233 22.9396248 3.01379366 25.9201421 3.01379366 26.4825038 0.0507066233"></polygon>
                    <path d="M33.3433172,3.01379366 C32.5560107,3.01379366 31.7687043,3.68468129 31.6562319,4.46738353 L29.6317296,15.8724733 L26.6512124,15.8724733 L28.788187,3.7405886 C29.1256041,1.6720184 31.0938702,0.0507066233 33.1746086,0.0507066233 L46.2776374,0.0507066233 C48.3583758,0.0507066233 49.708044,1.7279257 49.3143908,3.7405886 L47.1774161,15.8724733 L44.1968989,15.8724733 L46.2214012,4.46738353 C46.3338735,3.68468129 45.827748,3.01379366 45.0404415,3.01379366 C41.1039093,3.01379366 37.2236132,3.01379366 33.3433172,3.01379366 Z" id="Shape"></path>
                    <path d="M56.8500382,3.01379366 C56.0627318,3.01379366 55.2754253,3.68468129 55.162953,4.46738353 L53.1384507,15.8724733 L50.1579334,15.8724733 L52.294908,3.7405886 C52.6323251,1.6720184 54.6005912,0.0507066233 56.6813297,0.0507066233 L69.7843584,0.0507066233 C71.8650969,0.0507066233 73.2147651,1.7279257 72.8211118,3.7405886 L70.6841372,15.8724733 L67.7036199,15.8724733 L68.9408158,8.93996774 L57.3561638,8.93996774 L57.8622893,5.9768807 L69.4469413,5.9768807 L69.7281222,4.46738353 C69.8405946,3.68468129 69.334469,3.01379366 68.5471625,3.01379366 C64.6668665,3.01379366 60.7865704,3.01379366 56.8500382,3.01379366 Z" id="Shape"></path>
                    <path d="M80.4129954,3.01379366 C79.625689,3.01379366 78.8383825,3.68468129 78.7259102,4.46738353 L76.6451717,15.9283806 L73.6646545,15.9283806 L75.8016291,3.7964959 C76.1390461,1.7279257 78.1073123,0.106613926 80.1880507,0.106613926 L93.2910794,0.106613926 C95.3718179,0.106613926 96.7214861,1.783833 96.384069,3.7964959 L94.2470944,15.9283806 L91.2665771,15.9283806 L93.2910794,4.52329083 C93.4035518,3.7405886 92.8974262,3.06970096 92.1101198,3.06970096 C88.1735875,3.01379366 84.2932915,3.01379366 80.4129954,3.01379366 Z" id="Shape"></path>
                    <path d="M100.939199,11.5117037 C100.826727,12.2944059 101.332852,12.9652935 102.176395,12.9652935 L115.279424,12.9652935 L114.773298,15.9283806 L100.939199,15.9283806 C98.8584607,15.9283806 97.5087925,14.2511615 97.8462096,12.2384986 L99.3645863,3.7964959 C99.7582395,1.7279257 101.670269,0.106613926 103.751008,0.106613926 L117.585107,0.106613926 L117.078981,3.06970096 L103.975953,3.06970096 C103.188646,3.06970096 102.40134,3.7405886 102.232631,4.52329083 C101.501561,8.32498741 101.614033,7.65409978 100.939199,11.5117037 Z" id="Shape"></path>
                    <path d="M121.465403,11.5117037 C121.352931,12.2944059 121.859056,12.9652935 122.702599,12.9652935 L135.805628,12.9652935 L135.299502,15.9283806 L121.465403,15.9283806 C119.384665,15.9283806 118.034996,14.2511615 118.372413,12.2384986 L119.89079,3.7964959 C120.284443,1.7279257 122.196473,0.106613926 124.277212,0.106613926 L138.111311,0.106613926 L137.605185,3.06970096 L124.44592,3.06970096 C123.658614,3.06970096 122.871307,3.7405886 122.702599,4.52329083 C122.027765,8.32498741 122.140237,7.65409978 121.465403,11.5117037 Z" id="Shape"></path>
                    <polygon id="Shape" points="124.89581 8.99587504 136.480462 8.99587504 137.042823 5.9768807 125.458171 5.9768807"></polygon>
                    <polygon id="Shape" points="138.786145 12.9652935 138.223783 15.9283806 141.2043 15.9283806 141.766662 12.9652935"></polygon>
                    <path d="M152.170354,12.9652935 C151.383048,12.9652935 150.820686,12.2944059 150.989395,11.5117037 L153.013897,0.106613926 L150.03338,0.106613926 L147.896405,12.2384986 C147.558988,14.3070688 148.908656,15.9283806 150.933159,15.9283806 L164.036187,15.9283806 C166.116926,15.9283806 168.028956,14.2511615 168.422609,12.2384986 L170.559584,0.0507066233 L167.579066,0.0507066233 L165.554564,11.4557964 C165.385855,12.2384986 164.654785,12.9093862 163.867479,12.9093862 C159.930947,12.9652935 156.05065,12.9652935 152.170354,12.9652935 Z" id="Shape"></path>
                    <path d="M177.420397,3.01379366 C176.63309,3.01379366 175.845784,3.68468129 175.733312,4.46738353 L173.708809,15.8724733 L170.728292,15.8724733 L172.865267,3.7405886 C173.202684,1.6720184 175.17095,0.0507066233 177.251688,0.0507066233 L190.354717,0.0507066233 C192.435456,0.0507066233 193.785124,1.7279257 193.447707,3.7405886 L191.310732,15.8724733 L188.330215,15.8724733 L189.567411,8.93996774 L177.982759,8.93996774 L178.488884,5.9768807 L190.073536,5.9768807 L190.354717,4.46738353 C190.467189,3.68468129 189.961064,3.01379366 189.173757,3.01379366 C185.180989,3.01379366 181.300693,3.01379366 177.420397,3.01379366 Z" id="Shape"></path>
                </g>
            </g>
        </g>
    </g>
</svg>