<?xml version="1.0" encoding="UTF-8" standalone="no"?>
<svg width="142px" height="30px" viewBox="0 0 142 30" version="1.1" xmlns="http://www.w3.org/2000/svg" xmlns:xlink="http://www.w3.org/1999/xlink">
    <!-- Generator: Sketch 46.1 (44463) - http://www.bohemiancoding.com/sketch -->
    <title>Group</title>
    <desc>Created with Sketch.</desc>
    <defs></defs>
    <g id="Work-in-progress" stroke="none" stroke-width="1" fill="none" fill-rule="evenodd">
        <g id="Artboard-7" transform="translate(-143.000000, -39.000000)" fill-rule="nonzero" fill="#FFFFFF">
            <g id="Group" transform="translate(143.000000, 39.000000)">
                <g id="Group-2">
                    <path d="M124.114286,6.85714286 L124.114286,23.3296043 L121.622821,23.3296043 L121.622821,22.1763955 C120.120165,23.040877 118.435634,23.5477599 116.701834,23.6571429 C112.049264,23.6571429 111.085714,21.5144946 111.085714,15.4686782 L111.085714,6.85714286 L113.577179,6.85714286 L113.577179,15.4209122 C113.577179,19.96551 113.976364,21.4530811 117.066606,21.4530811 C118.659121,21.4082437 120.218215,20.989644 121.615938,20.2316351 L121.615938,6.85714286 L124.114286,6.85714286 Z M140.012983,20.2627205 C140.081907,21.2188958 140.881427,21.5808765 141.942857,21.7106431 L141.846363,23.6571429 C140.081907,23.6571429 138.882629,23.3293113 137.88323,22.3389869 C135.983813,23.1343304 133.954334,23.5809735 131.893729,23.6571429 C128.867962,23.6571429 127.2,21.9428571 127.2,18.6099032 C127.2,15.4408651 128.86107,14.0612408 132.293488,13.7265794 L137.517932,13.2348321 L137.517932,11.8210586 C137.517932,9.51257826 136.518533,8.68616961 134.526628,8.68616961 C132.196995,8.68616961 128.240753,9.11644849 128.240753,9.11644849 L128.137367,7.23824701 C130.287285,6.82160214 132.467925,6.57947841 134.657584,6.51428571 C138.413945,6.51428571 140.012983,8.22857143 140.012983,11.8210586 L140.012983,20.2627205 Z M132.686931,15.5915455 C130.719229,15.7897766 129.942857,16.7467546 129.942857,18.5650127 C129.942857,20.3832709 130.752694,21.6 132.399138,21.6 C134.136841,21.5173426 135.85206,21.16468 137.485714,20.5541598 L137.485714,15.0857143 L132.686931,15.5915455 Z M12.3022595,7.04622289 L15.7714286,7.04622289 L15.7714286,23.6571429 L11.361699,23.6571429 L11.361699,10.8308153 L6.18861588,10.8308153 L6.18861588,23.6571429 L1.77888628,23.6571429 L1.77888628,10.8239342 L0,10.8239342 L0,7.03934181 L1.81296456,7.03934181 L1.81296456,6.30994764 C1.81296456,1.5275991 2.99888875,0 6.58392394,0 C7.83564407,0.0848326621 9.08225923,0.234116896 10.3189036,0.447270007 L10.250747,4.06671653 C10.250747,4.06671653 8.79901222,3.99790576 7.74940116,3.99790576 C6.49532041,3.99790576 6.16816891,4.66537023 6.16816891,6.35811518 L6.16816891,7.04622289 L12.3022595,7.04622289 Z M19.8857143,23.3142857 L19.8857143,6.90846047 L24.3048347,6.90846047 L24.3048347,7.8259362 C24.3048347,7.8259362 26.5625785,6.51428571 28.4348539,6.51428571 C33.0880087,6.51428571 34.2857143,9.40263523 34.2857143,14.4249653 L34.2857143,23.3142857 L29.8528271,23.3142857 L29.8528271,14.5472954 C29.8528271,12.0531207 29.5224256,10.4696255 27.3610489,10.4696255 C26.3270543,10.4955907 25.3051261,10.695547 24.3392516,11.0608877 L24.3392516,23.3142857 L19.8857143,23.3142857 Z M50.6896961,19.0327031 C50.7577296,20.0344528 50.8869932,20.4144268 51.7714286,20.6009595 L51.6421649,24 C49.4446832,24 48.328934,23.765107 46.9478542,22.8324434 C45.4296348,23.5422615 43.7878054,23.9391101 42.1174764,24 C38.6681785,24 37.0285714,22.0655867 37.0285714,18.5283739 C37.0285714,14.756268 39.164823,13.6923407 42.7774013,13.4229046 L46.2947327,13.1534684 L46.2947327,12.1171756 C46.2947327,10.6801829 45.6688246,10.3140261 44.3557782,10.3140261 C42.1855099,10.3140261 38.1783374,10.5834622 38.1783374,10.5834622 L38.0490738,7.48149235 C40.2285154,6.90502439 42.4651402,6.58056258 44.7163557,6.51428571 C48.9888589,6.51428571 50.6964994,8.21380595 50.6964994,12.1171756 L50.6896961,19.0327031 Z M43.3136409,16.7268187 C42.1694943,16.8305402 41.4857143,17.4182953 41.4857143,18.6007203 C41.4857143,19.7831453 41.9122305,20.5714286 43.0834576,20.5714286 C44.1675031,20.5216099 45.2421709,20.3429257 46.2857143,20.0389916 L46.2857143,16.4571429 L43.3136409,16.7268187 Z M54.5142857,23.3142857 L54.5142857,6.90846047 L58.9524537,6.90846047 L58.9524537,7.8259362 C58.9524537,7.8259362 61.2058888,6.51428571 63.0745911,6.51428571 C67.7188659,6.51428571 68.9142857,9.40263523 68.9142857,14.4249653 L68.9142857,23.3142857 L64.4486369,23.3142857 L64.4486369,14.5472954 C64.4486369,12.0531207 64.1188659,10.4696255 61.961614,10.4696255 C60.9295778,10.4954581 59.9095773,10.6954188 58.9455834,11.0608877 L58.9455834,23.3142857 L54.5142857,23.3142857 Z M84,7.26762281 L83.8687665,10.8062338 C83.8687665,10.8062338 81.2371892,10.5366911 79.9662963,10.5366911 C76.7683428,10.5366911 76.1674314,11.7738227 76.1674314,15.1050932 C76.1674314,18.8441333 76.8028779,20.0121513 80.0008314,20.0121513 C81.2717244,20.0121513 83.8687665,19.7426087 83.8687665,19.7426087 L84,23.308865 C82.2063331,23.6655108 80.3899761,23.8964503 78.5641698,24 C73.5911104,24 71.6571429,21.3667758 71.6571429,15.0912705 C71.6571429,9.18206663 73.7292509,6.51428571 78.6954033,6.51428571 C80.4806023,6.62588385 82.2542678,6.87777255 84,7.26762281 Z M99.4893801,19.7650167 L99.5573046,23.0673365 C97.3289846,23.6055721 95.0537259,23.9179851 92.7648518,24 C87.8131536,24 85.7142857,21.49908 85.7142857,15.4954902 C85.7142857,9.49190043 88.1731536,6.51428571 92.9618329,6.51428571 C97.7505121,6.51428571 100.114286,9.01520573 100.114286,14.0515889 L99.788248,17.1535587 L90.142965,17.1535587 C90.142965,19.1570582 91.0939084,20.0551786 93.4576819,20.0551786 C96.113531,20.0689959 99.4893801,19.7650167 99.4893801,19.7650167 Z M96,13.7142857 C96,11.1213042 95.2251839,10.2857143 93.1031651,10.2857143 C90.9811463,10.2857143 90.2063302,11.2804642 90.1714286,13.7142857 L96,13.7142857 Z M106.285714,23.6571429 C105.33894,23.6571429 104.571429,22.889631 104.571429,21.9428571 C104.571429,20.9960833 105.33894,20.2285714 106.285714,20.2285714 C107.232488,20.2285714 108,20.9960833 108,21.9428571 C108,22.889631 107.232488,23.6571429 106.285714,23.6571429 Z" id="Combined-Shape"></path>
                </g>
            </g>
        </g>
    </g>
</svg>